<?xml version="1.0" encoding="UTF-8" standalone="no"?>
<svg width="87px" height="65px" viewBox="0 0 87 65" version="1.1" xmlns="http://www.w3.org/2000/svg" xmlns:xlink="http://www.w3.org/1999/xlink">
    <!-- Generator: Sketch 41.2 (35397) - http://www.bohemiancoding.com/sketch -->
    <title>Shape</title>
    <desc>Created with Sketch.</desc>
    <defs></defs>
    <g id="Page-1" stroke="none" stroke-width="1" fill="none" fill-rule="evenodd">
        <g id="noun_17547_cc" fill="#6DC77A">
            <path d="M86.5,3 C86.5,1.343 85.157,0 83.5,0 L3.5,0 C1.843,0 0.5,1.343 0.5,3 L0.5,62 C0.5,63.657 1.843,65 3.5,65 L83.5,65 C85.157,65 86.5,63.657 86.5,62 L86.5,3 Z M20,2.833 C21.196,2.833 22.167,3.803 22.167,5 C22.167,6.197 21.197,7.167 20,7.167 C18.803,7.167 17.833,6.197 17.833,5 C17.833,3.803 18.804,2.833 20,2.833 Z M14,2.833 C15.196,2.833 16.167,3.803 16.167,5 C16.167,6.197 15.197,7.167 14,7.167 C12.803,7.167 11.833,6.197 11.833,5 C11.833,3.803 12.804,2.833 14,2.833 Z M8,2.833 C9.196,2.833 10.167,3.803 10.167,5 C10.167,6.197 9.197,7.167 8,7.167 C6.803,7.167 5.833,6.197 5.833,5 C5.833,3.803 6.804,2.833 8,2.833 Z M82.5,61 L4.5,61 L4.5,11 L82.5,11 L82.5,61 Z" id="Shape"></path>
        </g>
    </g>
</svg>