<?xml version="1.0" encoding="UTF-8" standalone="no"?>
<svg width="100px" height="96px" viewBox="0 0 100 96" version="1.1" xmlns="http://www.w3.org/2000/svg" xmlns:xlink="http://www.w3.org/1999/xlink">
    <!-- Generator: Sketch 41.2 (35397) - http://www.bohemiancoding.com/sketch -->
    <title>Shape</title>
    <desc>Created with Sketch.</desc>
    <defs></defs>
    <g id="Page-1" stroke="none" stroke-width="1" fill="none" fill-rule="evenodd">
        <g id="noun_683124_cc" fill="#6DC77A">
            <path d="M33.19,76.45 C32.6477545,77.3215769 31.7806831,77.9412764 30.7804827,78.1720919 C29.7802824,78.4029074 28.7293386,78.2258267 27.86,77.68 C18.5688689,71.8575697 11.908741,62.6474413 9.29,52 C8.89749975,49.9667626 10.1750778,47.9848341 12.1889649,47.5027866 C14.202852,47.0207392 16.2393489,48.209405 16.81,50.2 C18.9616546,58.8826609 24.4099417,66.3861609 32,71.12 C33.7963881,72.2660782 34.3283432,74.6487004 33.19,76.45 Z M35.19,11.39 C44.5546371,6.89238065 55.4553629,6.89238065 64.82,11.39 C66.0704296,11.9902062 67.5460804,11.8777234 68.691089,11.0949228 C69.8360976,10.3121221 70.47651,8.97792959 70.371089,7.59492269 C70.265668,6.2119158 69.4304296,4.99020616 68.18,4.39 C56.6925201,-1.13219039 43.3174799,-1.13219039 31.83,4.39 C30.5795704,4.99020617 29.744332,6.2119158 29.638911,7.59492269 C29.53349,8.97792957 30.1739024,10.3121221 31.318911,11.0949227 C32.4639196,11.8777234 33.9395704,11.9902062 35.19,11.39 L35.19,11.39 Z M66.92,76.45 C67.4622455,77.3215769 68.3293169,77.9412764 69.3295173,78.1720919 C70.3297176,78.4029074 71.3806614,78.2258267 72.25,77.68 C81.5411311,71.8575697 88.201259,62.6474413 90.82,52 C91.2323857,49.9593189 89.956419,47.9580791 87.9322926,47.4708891 C85.9081663,46.9836992 83.8613345,48.1851696 83.3,50.19 C81.176946,58.8955946 75.7416792,66.4296278 68.15,71.19 C66.3817457,72.3198938 65.8361328,74.6531652 66.92,76.45 L66.92,76.45 Z M83.92,21.45 C88.7856286,21.45 92.73,17.5056286 92.73,12.64 C92.73,7.77437135 88.7856286,3.83 83.92,3.83 C79.0543714,3.83 75.11,7.77437135 75.11,12.64 C75.0993673,14.9792167 76.0184326,17.2268464 77.6650072,18.888424 C79.3115818,20.5500015 81.5507831,21.4894154 83.89,21.5 L83.92,21.45 Z M97.36,26.33 C95.9308014,24.7282884 93.8866453,23.8116917 91.74,23.81 L89,23.81 C88.7236886,23.8083328 88.4619252,23.9336843 88.29,24.15 L84,29.53 C83.85,29.72 83.71,29.71 83.56,29.53 L79.34,24.2 C79.1680748,23.9836843 78.9063114,23.8583328 78.63,23.86 L76.07,23.86 C71.9708834,23.8592896 68.6263133,27.1415938 68.55,31.24 L68.55,31.24 L68.55,39 C68.55,40.2095036 69.5304964,41.19 70.74,41.19 L97.06,41.19 C98.2695036,41.19 99.25,40.2095036 99.25,39 L99.25,31.23 L99.25,31.23 C99.212531,29.4342122 98.5352181,27.7107876 97.34,26.37 L97.36,26.33 Z M16.11,21.5 C20.9756286,21.5 24.92,17.5556286 24.92,12.69 C24.92,7.82437135 20.9756286,3.88 16.11,3.88 C11.2443714,3.88 7.3,7.82437135 7.3,12.69 C7.30551088,17.5533441 11.2466559,21.4944891 16.11,21.5 Z M29.28,41.21 C29.8625707,41.2073642 30.4200821,40.9727173 30.8292014,40.5579679 C31.2383207,40.1432186 31.4653263,39.5825524 31.46,39 L31.46,31.23 L31.46,31.23 C31.3836188,27.1277002 28.0330062,23.8438329 23.93,23.85 L21.24,23.85 C20.9636886,23.8483328 20.7019252,23.9736843 20.53,24.19 L16.26,29.52 C16.11,29.71 15.97,29.7 15.82,29.52 L11.56,24.2 C11.3880748,23.9836843 11.1263114,23.8583328 10.85,23.86 L8.28,23.86 C4.18469905,23.8591852 0.841688104,27.1355138 0.76,31.23 L0.76,31.23 L0.76,39 C0.76,40.2095036 1.7404964,41.19 2.95,41.19 L29.28,41.21 Z M50.05,76 C54.9156286,76 58.86,72.0556286 58.86,67.19 C58.86,62.3243714 54.9156286,58.38 50.05,58.38 C45.1843714,58.38 41.24,62.3243714 41.24,67.19 C41.2455109,72.0533441 45.1866559,75.9944891 50.05,76 Z M36.61,80.88 C35.4176483,82.2217579 34.7438273,83.9453211 34.71,85.74 L34.71,85.74 L34.71,93.53 C34.71,94.7395036 35.6904964,95.72 36.9,95.72 L63.22,95.72 C64.4295036,95.72 65.41,94.7395036 65.41,93.53 L65.41,85.74 L65.41,85.74 C65.3336188,81.6377002 61.9830062,78.3538329 57.88,78.36 L55.19,78.36 C54.9136886,78.3583328 54.6519252,78.4836843 54.48,78.7 L50.21,84 C50.06,84.19 49.92,84.18 49.77,84 L45.5,78.71 C45.3280748,78.4936843 45.0663114,78.3683328 44.79,78.37 L42.23,78.37 C40.0849137,78.3691469 38.0410058,79.2819955 36.61,80.88 Z" id="Shape"></path>
        </g>
    </g>
</svg>