<?xml version="1.0" encoding="UTF-8" standalone="no"?>
<svg width="69px" height="56px" viewBox="0 0 69 56" version="1.1" xmlns="http://www.w3.org/2000/svg" xmlns:xlink="http://www.w3.org/1999/xlink">
    <!-- Generator: Sketch 41.2 (35397) - http://www.bohemiancoding.com/sketch -->
    <title>noun_755743_cc</title>
    <desc>Created with Sketch.</desc>
    <defs></defs>
    <g id="Page-1" stroke="none" stroke-width="1" fill="none" fill-rule="evenodd">
        <g id="noun_755743_cc" transform="translate(-10.000000, -17.000000)">
            <g id="Group" transform="translate(10.581395, 16.418605)" fill="#6DC77A">
                <path d="M1.20189777,0.725299535 L67.0268596,0.725299535 C67.614571,0.725299535 68.0910457,1.2017742 68.0910457,1.78948558 L68.0910457,54.765066 C68.0910457,55.3527774 67.614571,55.8292521 67.0268596,55.8292521 L1.20189777,55.8292521 C0.614186391,55.8292521 0.137711721,55.3527774 0.137711721,54.765066 L0.137711721,1.78948558 C0.137711721,1.2017742 0.614186391,0.725299535 1.20189777,0.725299535 L1.20189777,0.725299535 Z M65.9626736,2.85367163 L2.26608381,2.85367163 L2.26608381,53.70088 L65.9626736,53.70088 L65.9626736,2.85367163 L65.9626736,2.85367163 Z" id="Shape"></path>
                <path d="M1.20189777,11.7712847 C0.614186391,11.7712847 0.137711721,12.2477593 0.137711721,12.8354707 C0.137711721,13.4231821 0.614186391,13.8996567 1.20189777,13.8996567 L67.0268596,13.8996567 C67.614571,13.8996567 68.0910457,13.4231821 68.0910457,12.8354707 C68.0910457,12.2477593 67.614571,11.7712847 67.0268596,11.7712847 L1.20189777,11.7712847 L1.20189777,11.7712847 Z" id="Shape"></path>
                <path d="M27.9026316,5.91001395 C27.3149203,5.91001395 26.8384456,6.38648862 26.8384456,6.9742 C26.8384456,7.56191138 27.3149203,8.03838605 27.9026316,8.03838605 L31.97309,8.03838605 C32.5608014,8.03838605 33.0372761,7.56191138 33.0372761,6.9742 C33.0372761,6.38648862 32.5608014,5.91001395 31.97309,5.91001395 L27.9026316,5.91001395 Z" id="Shape"></path>
                <path d="M17.9902707,5.91001395 C17.4025593,5.91001395 16.9260847,6.38648862 16.9260847,6.9742 C16.9260847,7.56191138 17.4025593,8.03838605 17.9902707,8.03838605 L22.0607823,8.03838605 C22.6484937,8.03838605 23.1249684,7.56191138 23.1249684,6.9742 C23.1249684,6.38648862 22.6484937,5.91001395 22.0607823,5.91001395 L17.9902707,5.91001395 Z" id="Shape"></path>
                <path d="M8.07804279,5.91001395 C7.49033141,5.91001395 7.01385674,6.38648862 7.01385674,6.9742 C7.01385674,7.56191138 7.49033141,8.03838605 8.07804279,8.03838605 L12.1485012,8.03838605 C12.7362126,8.03838605 13.2126873,7.56191138 13.2126873,6.9742 C13.2126873,6.38648862 12.7362126,5.91001395 12.1485012,5.91001395 L8.07804279,5.91001395 Z" id="Shape"></path>
                <path d="M20.1683935,27.5959972 L22.1420595,33.7101983 L28.6512466,33.6976816 L28.6512466,33.6935442 C29.238958,33.6924444 29.7163758,34.167977 29.7174746,34.7556884 C29.7181554,35.1323437 29.5231249,35.4636448 29.2282736,35.6533865 L24.0032398,39.4342267 L26.0262442,45.6199145 L26.0281295,45.619286 C26.210801,46.1778786 25.9060518,46.7788404 25.3474588,46.9615173 C24.9746798,47.0834378 24.583046,46.9881744 24.3094584,46.7453279 L19.1324993,42.9688243 L13.87264,46.8058668 L13.8755204,46.8097946 C13.4007218,47.156126 12.7349764,47.0520127 12.3886397,46.5772128 C12.1652763,46.2710505 12.1294013,45.88544 12.2592824,45.5573328 L14.261748,39.4342324 L8.98873273,35.6186599 L8.98784242,35.6198644 C8.51173489,35.2753661 8.40505423,34.6099878 8.74955254,34.1338749 C8.97773398,33.8185473 9.34669127,33.6653604 9.70815803,33.6978832 L16.1229651,33.7101905 L18.1223445,27.5161754 L19.1324832,27.8404063 L18.1197253,27.5135043 C18.3002498,26.9541788 18.9000584,26.6471252 19.4593892,26.8276484 C19.8268793,26.9462695 20.0854366,27.2458336 20.1683925,27.595988 L20.1683935,27.5959972 Z M21.3698968,34.7717106 L20.3597581,35.0959415 L19.1324882,31.2939905 L17.9312988,35.0152895 C17.8210047,35.4864219 17.3976867,35.8368385 16.8930896,35.8358967 L16.8930896,35.8317593 L12.8980952,35.8240607 L16.0855719,38.130551 C16.4851126,38.3854953 16.6778925,38.8869505 16.5237625,39.3582399 L16.5218771,39.3576114 L15.2792098,43.1574207 L18.4247974,40.8627163 C18.7908734,40.5361815 19.3472671,40.4971112 19.7596326,40.797933 L19.7567521,40.8018608 L22.9858119,43.1574233 L21.764093,39.4219308 C21.5872346,38.9796018 21.7253382,38.4572501 22.1288069,38.1653319 L22.1296972,38.1665364 L25.3668713,35.8240767 L21.4669886,35.8315658 C20.9818209,35.8764481 20.5130961,35.5816497 20.3571876,35.098629 L21.3698923,34.771727 L21.3698968,34.7717106 Z" id="Shape"></path>
                <path d="M46.877734,21.4053609 L49.6163369,29.8893181 L58.6150941,29.8720356 L58.6150941,29.8678983 C59.2028055,29.8667985 59.6802233,30.342331 59.6813221,30.9300424 C59.6820029,31.3066978 59.4869725,31.6379988 59.1921211,31.8277406 L51.9501621,37.0680188 L54.7470559,45.6199509 L54.7489412,45.6193224 C54.9316128,46.177915 54.6268635,46.7788768 54.0682706,46.9615537 C53.6954915,47.0834741 53.3038577,46.9882107 53.0302701,46.7453643 L45.8420393,41.5016807 L38.5708551,46.8059032 L38.5737355,46.809831 C38.0989369,47.1561624 37.4331914,47.0520491 37.0868547,46.5772492 C36.8634914,46.2710868 36.8276164,45.8855282 36.9574975,45.5573692 L39.7338658,37.0680245 L32.4439785,31.7930272 L32.4430882,31.7942318 C31.9669807,31.4497335 31.8603,30.7843551 32.2047983,30.3082423 C32.4329797,29.9929146 32.801937,29.8397277 33.1634038,29.8722506 L42.0676879,29.8893236 L44.8318978,21.3261909 L45.8420365,21.6504218 L44.8293318,21.3235198 C45.0098564,20.7642462 45.6096649,20.4571926 46.1689425,20.6377171 C46.5361186,20.7562335 46.7945708,21.0555352 46.877737,21.405377 L46.877734,21.4053609 Z M48.8441768,30.9508304 L47.8340381,31.2750613 L45.8420415,25.1039395 L43.8760243,31.1944093 C43.7657302,31.6655418 43.3424121,32.0159583 42.837815,32.0150165 L42.837815,32.0108791 L36.3533437,31.9984147 L41.5576923,35.7643297 C41.957233,36.0192741 42.1500129,36.5207292 41.9958829,36.9920186 L41.9939975,36.9913902 L39.9774448,43.1574305 L45.134344,39.3955461 C45.50042,39.0690112 46.0568138,39.029941 46.4691792,39.3307627 L46.4662988,39.3346906 L51.706577,43.1573799 L49.7110153,37.0556962 C49.5341569,36.6133673 49.6722605,36.0910156 50.0757292,35.7990974 L50.0766195,35.8003019 L55.3307189,31.9984041 L48.941838,32.010659 C48.456355,32.0558031 47.9873696,31.761005 47.8314078,31.2777222 L48.8441657,30.9508202 L48.8441768,30.9508304 Z" id="Shape"></path>
            </g>
            <polygon id="Shape" points="0 0 89.3916279 0 89.3916279 89.3916279 0 89.3916279"></polygon>
        </g>
    </g>
</svg>